<svg width="170" height="64" fill="none" xmlns="http://www.w3.org/2000/svg"><path d="M142.388 55.472c-.92 0-1.805-.08-2.665-.254-.86-.173-1.553-.393-2.091-.67l.777-3.373h.561c.371.543.789 1.097 1.255 1.675.466.578.884 1.028 1.255 1.363.322.093.704.139 1.135.139 1.577 0 2.377-.462 2.377-1.386 0-.37-.119-.705-.358-1.005-.239-.3-.55-.555-.932-.786-.382-.22-.872-.485-1.482-.762l-.37-.185c-.825-.382-1.506-.74-2.043-1.086a4.48 4.48 0 0 1-1.326-1.294c-.347-.52-.526-1.144-.526-1.883 0-1.202.502-2.114 1.493-2.727 1.004-.623 2.342-.935 4.015-.935.645 0 1.338.057 2.067.184.741.128 1.386.29 1.948.486l-.61 3.292h-.573c-.92-1.398-1.625-2.31-2.127-2.75a9.436 9.436 0 0 0-1.028-.08c-.621 0-1.099.104-1.422.323-.31.22-.477.52-.477.913 0 .381.107.728.334 1.04.227.3.526.577.908.808.383.231.872.497 1.47.774l.37.174c.801.37 1.47.727 2.019 1.086.55.358 1.004.797 1.375 1.305.358.52.549 1.12.549 1.814 0 .82-.251 1.513-.753 2.09-.501.578-1.206 1.006-2.079 1.294-.896.278-1.899.416-3.046.416zm-9.105 0c-1.123 0-2.043-.288-2.76-.855-.705-.577-1.063-1.42-1.063-2.553v-8.317h-1.649v-.774l1.613-1.34 3.142-2.346h.729v3.328h3.871v1.132h-3.787v7.89c0 .624.143 1.086.43 1.352.286.277.705.416 1.266.416.418 0 .765-.07 1.052-.22.286-.15.609-.37.968-.647l.609.89c-.478.577-1.099 1.062-1.876 1.467a5.702 5.702 0 0 1-2.545.577zm-20.945-.797 1.589-1.513v-7.729l-1.446-1.605v-.497l4.911-1.028.346.323-.155 1.849h.275a8.444 8.444 0 0 1 2.174-1.583 5.577 5.577 0 0 1 2.545-.612c.741 0 1.422.161 2.032.462.597.312 1.075.739 1.421 1.294.347.554.514 1.178.514 1.883v7.231l1.577 1.514v.508h-7.013v-.508l1.505-1.514V46.59c0-.694-.179-1.26-.525-1.687-.347-.428-.801-.635-1.351-.635-.49 0-.991.173-1.505.508-.502.346-.956.74-1.362 1.178v7.197l1.505 1.514v.508h-7.013v-.497h-.024zm-5.735-11.217c-.813 0-1.398.416-1.757 1.236-.358.82-.561 1.814-.621 2.98l4.433-.265c0-1.444-.168-2.472-.514-3.062-.335-.6-.86-.89-1.541-.89zm1.589 9.935c.478 0 .92-.08 1.314-.254a4.636 4.636 0 0 0 1.016-.6 8.96 8.96 0 0 0 .92-.867l.824.855c-.777.958-1.625 1.686-2.521 2.194-.908.509-1.995.763-3.298.763-1.254 0-2.365-.266-3.309-.809a5.635 5.635 0 0 1-2.199-2.252c-.526-.96-.777-2.068-.777-3.304 0-1.329.275-2.519.837-3.559a6.044 6.044 0 0 1 2.354-2.414c1.003-.578 2.162-.866 3.453-.866 1.183 0 2.222.277 3.094.831a5.3 5.3 0 0 1 1.996 2.253c.454.947.681 2.01.681 3.189h-8.376c.012.958.203 1.813.538 2.541.346.728.812 1.294 1.421 1.698.61.405 1.291.6 2.032.6zm-18.747-8.768-1.35-1.514v-.496h6.966v.496l-1.255 1.525 2.258 5.961 2.462-5.96-1.255-1.526v-.496h4.05v.496L99.84 44.66l-4.576 10.536H94.08l-4.636-10.57zM73.542 54.687l1.768-2.091V39.888l-1.768-2.08V37.3h10.347l3.644-.265.526 4.448-.717.011-3.441-2.865h-4.397v6.735h3.226l1.601-2.102h.597v5.556h-.597l-1.601-2.137h-3.226v7.186h4.731l4.087-3.016.513.012-.465 4.32H73.541v-.496zm92.037-27.772c-1.123 0-2.043-.289-2.76-.855-.705-.578-1.063-1.42-1.063-2.553v-8.318h-1.649v-.774l1.613-1.34 3.142-2.345h.729v3.327h3.871v1.132h-3.787v7.89c0 .624.143 1.087.43 1.352.287.277.705.416 1.266.416.419 0 .765-.07 1.052-.22.287-.15.609-.37.968-.646l.609.89c-.478.577-1.099 1.062-1.876 1.466a5.897 5.897 0 0 1-2.545.578zm-12.557-1.132c1.051 0 1.828-.416 2.318-1.236.489-.832.74-2.091.74-3.778 0-1.71-.251-2.992-.74-3.824-.49-.832-1.207-1.247-2.139-1.247-.514 0-.992.15-1.422.45-.442.3-.777.647-1.004 1.028v7.267a2.5 2.5 0 0 0 .92.97c.43.243.861.37 1.327.37zm-7.755 5.487 1.601-1.513V16.864l-1.446-1.594v-.52l4.911-1.016.347.323-.156 1.848h.263a7.555 7.555 0 0 1 1.9-1.582 4.268 4.268 0 0 1 2.187-.6c1.063 0 1.995.253 2.807.773.813.508 1.446 1.236 1.9 2.184.454.935.681 2.021.681 3.257 0 1.34-.275 2.542-.824 3.593a6.077 6.077 0 0 1-2.39 2.484c-1.039.6-2.282.9-3.716.9-.92 0-1.768-.196-2.557-.588v3.454l1.769 1.502v.508h-7.277v-.52zm-5.938-16.381c-.813 0-1.398.416-1.757 1.236-.358.82-.561 1.814-.621 2.98l4.433-.265c0-1.444-.167-2.472-.514-3.062-.334-.589-.86-.89-1.541-.89zm1.589 9.935c.478 0 .92-.08 1.314-.254a4.612 4.612 0 0 0 1.016-.6 8.85 8.85 0 0 0 .92-.867l.824.854c-.776.96-1.625 1.687-2.521 2.195-.908.509-1.995.763-3.297.763-1.255 0-2.366-.266-3.31-.809a5.635 5.635 0 0 1-2.199-2.252c-.525-.96-.776-2.068-.776-3.304 0-1.329.275-2.519.836-3.559a6.05 6.05 0 0 1 2.354-2.414c1.004-.578 2.163-.867 3.453-.867 1.183 0 2.222.278 3.095.832a5.304 5.304 0 0 1 1.995 2.253c.454.947.681 2.01.681 3.188h-8.376c.012.96.203 1.814.538 2.542.346.728.812 1.294 1.422 1.698.609.405 1.29.601 2.031.601zm-14.23 2.09c-1.219 0-2.294-.253-3.226-.785a5.378 5.378 0 0 1-2.187-2.218c-.526-.959-.789-2.056-.789-3.315 0-1.352.311-2.553.92-3.593a6.397 6.397 0 0 1 2.569-2.426c1.088-.578 2.342-.867 3.728-.867.705 0 1.47.07 2.282.208.813.14 1.47.3 1.984.486l-.634 3.662h-.704c-.837-1.317-1.602-2.368-2.271-3.142-.071-.012-.167-.035-.286-.058a1.842 1.842 0 0 0-.335-.035 2.58 2.58 0 0 0-1.625.555c-.478.37-.848.9-1.111 1.594-.263.693-.394 1.502-.394 2.414 0 1.12.167 2.08.478 2.9.322.809.776 1.433 1.362 1.872.585.427 1.266.646 2.043.646.645 0 1.242-.161 1.816-.473a7.213 7.213 0 0 0 1.553-1.167l.753.797a7.657 7.657 0 0 1-2.497 2.126c-1.004.543-2.139.82-3.429.82zm-21.89-.808 1.59-1.513v-7.729l-1.446-1.605v-.497l4.911-1.028.346.323-.155 1.848h.274a8.463 8.463 0 0 1 2.175-1.582 5.576 5.576 0 0 1 2.545-.613c.741 0 1.422.162 2.031.463.598.312 1.076.739 1.422 1.293.347.555.514 1.179.514 1.884v7.22l1.577 1.513v.509h-7.014v-.509l1.506-1.513v-6.562c0-.693-.179-1.26-.526-1.687-.346-.427-.8-.635-1.35-.635-.49 0-.992.173-1.505.508a8.22 8.22 0 0 0-1.363 1.179v7.208l1.506 1.514v.508h-7.014v-.497h-.024zm-7.061-.323c.92 0 1.625-.428 2.127-1.294.502-.867.752-2.23.752-4.078 0-1.86-.25-3.246-.764-4.17-.514-.925-1.219-1.375-2.139-1.375-.908 0-1.613.45-2.127 1.375-.501.912-.752 2.31-.752 4.181 0 1.86.25 3.212.752 4.078.526.855 1.243 1.283 2.151 1.283zm-.012 1.132c-1.326 0-2.533-.289-3.608-.843-1.076-.566-1.924-1.352-2.533-2.357-.61-1.005-.92-2.137-.92-3.385 0-1.248.31-2.368.92-3.362.62-1.005 1.47-1.79 2.545-2.368 1.075-.577 2.282-.866 3.596-.866 1.326 0 2.533.289 3.608.866 1.076.578 1.924 1.363 2.545 2.368.622 1.005.92 2.126.92 3.362 0 1.248-.31 2.38-.92 3.385a6.471 6.471 0 0 1-2.545 2.357c-1.075.554-2.282.843-3.608.843zm-14.541 0c-1.864 0-3.525-.381-4.982-1.155-1.458-.774-2.593-1.849-3.406-3.223-.812-1.387-1.218-2.946-1.218-4.69 0-1.803.394-3.409 1.206-4.83a8.422 8.422 0 0 1 3.418-3.338c1.47-.809 3.178-1.202 5.113-1.202.86 0 1.613.035 2.259.093.645.058 1.218.138 1.708.242.49.093 1.135.243 1.9.428l.538 5.129h-.813c-.275-.89-.657-1.675-1.17-2.357a5.601 5.601 0 0 0-1.829-1.617 4.855 4.855 0 0 0-2.377-.59c-1.817 0-3.167.683-4.075 2.046-.908 1.351-1.35 3.338-1.35 5.938 0 2.576.466 4.528 1.386 5.833.92 1.306 2.246 1.964 3.979 1.964 1.266 0 2.377-.392 3.333-1.201.956-.797 1.661-1.918 2.103-3.373h.813l-.538 5.129c-1.111.289-2.067.497-2.868.6-.8.116-1.84.174-3.13.174zM32.894 54.987c-13.036-.07-23.622-10.281-23.67-22.92-.047-12.696 10.539-23.035 23.67-23.093v46.013zm19.583-29.585c3.752 0 6.799 2.945 6.799 6.573 0 3.627-3.047 6.573-6.799 6.573-3.752 0-6.799-2.946-6.799-6.573.012-3.628 3.047-6.573 6.799-6.573zm-5.795-16.44h11.59v11.206L46.682 8.963zm0 46.025h11.59V43.781l-11.59 11.206zM32.894.044C14.649.114-.071 14.461 0 32.102c.072 17.56 14.78 31.746 32.894 31.804v-8.919h9.236V8.974h-9.236V.044z" fill="#fff"/></svg>