<svg width="170" height="58" viewBox="0 0 170 58" fill="none" xmlns="http://www.w3.org/2000/svg">
<path d="M142.388 50.3408C141.468 50.3408 140.583 50.2674 139.723 50.11C138.863 49.9526 138.17 49.7533 137.632 49.5014L138.409 46.4378H138.97C139.341 46.9309 139.759 47.4345 140.225 47.9591C140.691 48.4837 141.109 48.8929 141.48 49.1972C141.802 49.2811 142.184 49.3231 142.615 49.3231C144.192 49.3231 144.992 48.9034 144.992 48.064C144.992 47.7283 144.873 47.424 144.634 47.1512C144.395 46.8784 144.084 46.6476 143.702 46.4378C143.32 46.2384 142.83 45.9971 142.22 45.7453L141.85 45.5774C141.025 45.2312 140.344 44.9059 139.807 44.5912C139.269 44.2764 138.827 43.8882 138.481 43.4161C138.134 42.9439 137.955 42.3774 137.955 41.7059C137.955 40.6147 138.457 39.7858 139.448 39.2298C140.452 38.6632 141.79 38.3799 143.463 38.3799C144.108 38.3799 144.801 38.4323 145.53 38.5477C146.271 38.6632 146.916 38.8101 147.478 38.9884L146.868 41.9787H146.295C145.375 40.7091 144.67 39.8803 144.168 39.4816C143.69 39.4291 143.343 39.4081 143.14 39.4081C142.519 39.4081 142.041 39.5025 141.718 39.7019C141.408 39.9012 141.241 40.174 141.241 40.5308C141.241 40.877 141.348 41.1917 141.575 41.475C141.802 41.7478 142.101 41.9996 142.483 42.2095C142.866 42.4193 143.355 42.6606 143.953 42.9124L144.323 43.0698C145.124 43.4056 145.793 43.7308 146.342 44.0561C146.892 44.3813 147.346 44.78 147.717 45.2417C148.075 45.7138 148.266 46.2594 148.266 46.8889C148.266 47.6339 148.015 48.2634 147.513 48.788C147.012 49.3126 146.307 49.7008 145.434 49.9631C144.538 50.2149 143.535 50.3408 142.388 50.3408ZM133.283 50.3408C132.16 50.3408 131.24 50.0785 130.523 49.5644C129.818 49.0398 129.46 48.2739 129.46 47.2457V39.6914H127.811V38.9884L129.424 37.7713L132.566 35.6415H133.295V38.6632H137.166V39.6914H133.379V46.8575C133.379 47.424 133.522 47.8437 133.809 48.085C134.095 48.3368 134.514 48.4627 135.075 48.4627C135.493 48.4627 135.84 48.3998 136.127 48.2634C136.413 48.127 136.736 47.9276 137.095 47.6758L137.704 48.4837C137.226 49.0083 136.605 49.449 135.828 49.8162C135.051 50.1625 134.203 50.3408 133.283 50.3408ZM112.338 49.6169L113.927 48.2424V41.2232L112.481 39.7648V39.3137L117.392 38.3799L117.738 38.6737L117.583 40.3524H117.858C118.503 39.7648 119.232 39.2822 120.032 38.915C120.833 38.5478 121.681 38.3589 122.577 38.3589C123.318 38.3589 123.999 38.5058 124.609 38.7786C125.206 39.0619 125.684 39.4501 126.03 39.9537C126.377 40.4573 126.544 41.0239 126.544 41.6639V48.2319L128.121 49.6064V50.068H121.108V49.6064L122.613 48.2319V42.2724C122.613 41.6429 122.434 41.1288 122.088 40.7406C121.741 40.3524 121.287 40.1635 120.737 40.1635C120.247 40.1635 119.746 40.3209 119.232 40.6252C118.73 40.9399 118.276 41.2967 117.87 41.6954V48.2319L119.375 49.6064V50.068H112.362V49.6169H112.338ZM106.603 39.4291C105.79 39.4291 105.205 39.8068 104.846 40.5517C104.488 41.2967 104.285 42.199 104.225 43.2587L108.658 43.0174C108.658 41.7059 108.49 40.7721 108.144 40.237C107.809 39.6914 107.284 39.4291 106.603 39.4291ZM108.192 48.4522C108.67 48.4522 109.112 48.3788 109.506 48.2214C109.9 48.064 110.247 47.8752 110.522 47.6758C110.796 47.4765 111.107 47.2142 111.442 46.8889L112.266 47.6653C111.489 48.5362 110.641 49.1972 109.745 49.6588C108.837 50.1205 107.75 50.3513 106.447 50.3513C105.193 50.3513 104.082 50.11 103.138 49.6169C102.194 49.1237 101.453 48.4417 100.939 47.5709C100.413 46.7001 100.162 45.6928 100.162 44.5702C100.162 43.3636 100.437 42.2829 100.999 41.3386C101.56 40.3944 102.349 39.6704 103.353 39.1458C104.356 38.6212 105.515 38.3589 106.806 38.3589C107.989 38.3589 109.028 38.6107 109.9 39.1143C110.773 39.6179 111.442 40.2894 111.896 41.1603C112.35 42.0206 112.577 42.9859 112.577 44.0561H104.201C104.213 44.9269 104.404 45.7033 104.739 46.3643C105.085 47.0253 105.551 47.5394 106.16 47.9067C106.77 48.2739 107.451 48.4522 108.192 48.4522ZM89.4449 40.4888L88.0947 39.1143V38.6632H95.0606V39.1143L93.806 40.4993L96.0642 45.9132L98.5255 40.4993L97.271 39.1143V38.6632H101.321V39.1143L99.8399 40.5203L95.2637 50.089H94.0808L89.4449 40.4888ZM73.5417 49.6273L75.3101 47.7283V36.187L73.5417 34.2985V33.8368H83.8889L87.5332 33.5955L88.0589 37.6349L87.342 37.6454L83.9009 35.0434H79.504V41.1603H82.73L84.331 39.2507H84.9284V44.2974H84.331L82.73 42.3564H79.504V48.8824H84.2354L88.3218 46.144L88.8355 46.1545L88.3695 50.0785H73.5417V49.6273ZM165.579 24.4045C164.456 24.4045 163.536 24.1422 162.819 23.6281C162.114 23.1035 161.756 22.3376 161.756 21.3093V13.7551H160.107V13.0521L161.72 11.835L164.862 9.70514H165.591V12.7269H169.462V13.7551H165.675V20.9211C165.675 21.4877 165.818 21.9074 166.105 22.1487C166.392 22.4005 166.81 22.5264 167.371 22.5264C167.79 22.5264 168.136 22.4635 168.423 22.3271C168.71 22.1907 169.032 21.9913 169.391 21.7395L170 22.5474C169.522 23.072 168.901 23.5127 168.124 23.8799C167.336 24.2156 166.499 24.4045 165.579 24.4045ZM153.022 23.3763C154.073 23.3763 154.85 22.9985 155.34 22.2536C155.829 21.4982 156.08 20.3546 156.08 18.8227C156.08 17.2699 155.829 16.1053 155.34 15.3499C154.85 14.5944 154.133 14.2167 153.201 14.2167C152.687 14.2167 152.209 14.3531 151.779 14.6259C151.337 14.8987 151.002 15.2134 150.775 15.5597V22.1592C150.978 22.5159 151.289 22.8097 151.695 23.0405C152.125 23.2608 152.556 23.3763 153.022 23.3763ZM145.267 28.36L146.868 26.9855V15.2764L145.422 13.8285V13.3564L150.333 12.4331L150.68 12.7269L150.524 14.4056H150.787C151.361 13.8075 151.994 13.3354 152.687 12.9682C153.38 12.601 154.109 12.4226 154.874 12.4226C155.937 12.4226 156.869 12.6534 157.681 13.1256C158.494 13.5872 159.127 14.2482 159.581 15.1085C160.035 15.9584 160.262 16.9446 160.262 18.0673C160.262 19.2844 159.987 20.3755 159.438 21.3303C158.888 22.2851 158.088 23.0405 157.048 23.5861C156.009 24.1317 154.766 24.4045 153.332 24.4045C152.412 24.4045 151.564 24.2261 150.775 23.8694V27.0065L152.544 28.3705V28.8321H145.267V28.36ZM139.329 13.4823C138.516 13.4823 137.931 13.86 137.572 14.6049C137.214 15.3499 137.011 16.2522 136.951 17.3119L141.384 17.0705C141.384 15.759 141.217 14.8253 140.87 14.2902C140.536 13.7551 140.01 13.4823 139.329 13.4823ZM140.918 22.5054C141.396 22.5054 141.838 22.432 142.232 22.2746C142.627 22.1172 142.973 21.9284 143.248 21.729C143.523 21.5297 143.833 21.2674 144.168 20.9421L144.992 21.7185C144.216 22.5894 143.367 23.2504 142.471 23.712C141.563 24.1737 140.476 24.4045 139.174 24.4045C137.919 24.4045 136.808 24.1632 135.864 23.67C134.92 23.1769 134.179 22.495 133.665 21.6241C133.14 20.7533 132.889 19.746 132.889 18.6234C132.889 17.4168 133.164 16.3361 133.725 15.3918C134.287 14.4476 135.075 13.7236 136.079 13.199C137.083 12.6744 138.242 12.4121 139.532 12.4121C140.715 12.4121 141.754 12.6639 142.627 13.1675C143.499 13.6711 144.168 14.3426 144.622 15.2135C145.076 16.0738 145.303 17.0391 145.303 18.1093H136.927C136.939 18.9801 137.13 19.7565 137.465 20.4175C137.811 21.0785 138.277 21.5926 138.887 21.9598C139.496 22.3271 140.177 22.5054 140.918 22.5054ZM126.688 24.4045C125.469 24.4045 124.394 24.1736 123.462 23.691C122.518 23.2189 121.789 22.5474 121.275 21.6766C120.749 20.8057 120.486 19.809 120.486 18.6654C120.486 17.4378 120.797 16.3466 121.406 15.4023C122.028 14.458 122.876 13.7236 123.975 13.199C125.063 12.6744 126.317 12.4121 127.703 12.4121C128.408 12.4121 129.173 12.475 129.985 12.601C130.798 12.7269 131.455 12.8737 131.969 13.0416L131.335 16.3676H130.631C129.794 15.1715 129.029 14.2167 128.36 13.5138C128.289 13.5033 128.193 13.4823 128.074 13.4613C127.954 13.4403 127.835 13.4298 127.739 13.4298C127.13 13.4298 126.592 13.5977 126.114 13.9334C125.636 14.2692 125.266 14.7518 125.003 15.3813C124.74 16.0109 124.609 16.7453 124.609 17.5742C124.609 18.5919 124.776 19.4627 125.087 20.2077C125.409 20.9421 125.863 21.5087 126.449 21.9074C127.034 22.2956 127.715 22.4949 128.492 22.4949C129.137 22.4949 129.734 22.348 130.308 22.0648C130.881 21.771 131.395 21.4247 131.861 21.0051L132.614 21.729C131.933 22.5369 131.108 23.1769 130.117 23.6595C129.113 24.1527 127.978 24.4045 126.688 24.4045ZM104.798 23.67L106.388 22.2956V15.2764L104.942 13.818V13.3669L109.853 12.4331L110.199 12.7269L110.044 14.4056H110.318C110.964 13.818 111.693 13.3354 112.493 12.9682C113.294 12.601 114.142 12.4121 115.038 12.4121C115.779 12.4121 116.46 12.559 117.069 12.8318C117.667 13.1151 118.145 13.5033 118.491 14.0069C118.838 14.5105 119.005 15.0771 119.005 15.7171V22.2746L120.582 23.6491V24.1107H113.568V23.6491L115.074 22.2746V16.3151C115.074 15.6856 114.895 15.1715 114.548 14.7833C114.202 14.3951 113.748 14.2062 113.198 14.2062C112.708 14.2062 112.206 14.3636 111.693 14.6679C111.191 14.9826 110.737 15.3394 110.33 15.7381V22.2851L111.836 23.6595V24.1212H104.822V23.67H104.798ZM97.737 23.3763C98.657 23.3763 99.3619 22.9881 99.8637 22.2012C100.366 21.4143 100.616 20.1762 100.616 18.4975C100.616 16.8083 100.366 15.5492 99.8518 14.7098C99.338 13.8705 98.6331 13.4613 97.7131 13.4613C96.805 13.4613 96.1001 13.8705 95.5863 14.7098C95.0845 15.5387 94.8335 16.8083 94.8335 18.508C94.8335 20.1972 95.0845 21.4248 95.5863 22.2117C96.112 22.9881 96.8289 23.3763 97.737 23.3763ZM97.725 24.4045C96.3988 24.4045 95.192 24.1422 94.1166 23.6386C93.0413 23.1245 92.193 22.411 91.5836 21.4982C90.9743 20.5854 90.6636 19.5572 90.6636 18.424C90.6636 17.2909 90.9743 16.2732 91.5836 15.3708C92.2049 14.458 93.0533 13.7446 94.1286 13.22C95.2039 12.6954 96.4107 12.4331 97.725 12.4331C99.0513 12.4331 100.258 12.6954 101.333 13.22C102.409 13.7446 103.257 14.458 103.878 15.3708C104.5 16.2836 104.798 17.3014 104.798 18.424C104.798 19.5572 104.488 20.5854 103.878 21.4982C103.257 22.411 102.409 23.1245 101.333 23.6386C100.258 24.1422 99.0513 24.4045 97.725 24.4045ZM83.184 24.4045C81.3201 24.4045 79.6593 24.0583 78.2016 23.3553C76.7439 22.6523 75.6088 21.6766 74.7963 20.428C73.9839 19.169 73.5776 17.7525 73.5776 16.1682C73.5776 14.5315 73.9719 13.0731 74.7844 11.7826C75.5849 10.4921 76.72 9.47431 78.2016 8.75036C79.6712 8.01592 81.3798 7.65918 83.3154 7.65918C84.1757 7.65918 84.9284 7.69067 85.5736 7.74313C86.2189 7.79559 86.7924 7.86903 87.2822 7.96346C87.7721 8.04739 88.4174 8.18379 89.182 8.35166L89.7197 13.0101H88.9072C88.6324 12.2022 88.2501 11.4888 87.7363 10.8698C87.2345 10.2507 86.6251 9.75759 85.9082 9.40086C85.1913 9.04413 84.4027 8.86579 83.5305 8.86579C81.7144 8.86579 80.3642 9.48481 79.4561 10.7229C78.5481 11.9504 78.106 13.7551 78.106 16.1158C78.106 18.4555 78.572 20.2287 79.492 21.4143C80.412 22.5999 81.7382 23.1979 83.4707 23.1979C84.7373 23.1979 85.8485 22.8412 86.8043 22.1067C87.7602 21.3828 88.4651 20.365 88.9072 19.043H89.7197L89.182 23.7015C88.0709 23.9638 87.115 24.1527 86.3144 24.2471C85.5139 24.352 84.4744 24.4045 83.184 24.4045Z" fill="white"/>
<path d="M32.8938 49.9001C19.8583 49.8372 9.27211 40.5622 9.22431 29.0839C9.17652 17.5532 19.7627 8.16282 32.8938 8.11036V49.9001ZM52.477 23.03C56.2288 23.03 59.2755 25.7055 59.2755 29C59.2755 32.2945 56.2288 34.97 52.477 34.97C48.7253 34.97 45.6784 32.2945 45.6784 29C45.6904 25.7055 48.7253 23.03 52.477 23.03ZM46.6821 8.09986H58.2719V18.2771L46.6821 8.09986ZM46.6821 49.9001H58.2719V39.7229L46.6821 49.9001ZM32.8938 0C14.6488 0.0629522 -0.0714288 13.0941 0.000260744 29.1154C0.0719503 45.0633 14.7802 57.9475 32.8938 58V49.9001H42.1298V8.11036H32.8938V0Z" fill="white"/>
</svg>
