<svg width="157" height="23" viewBox="0 0 157 23" fill="none" xmlns="http://www.w3.org/2000/svg">
<path d="M1.74508 4.8H13.4451V19H10.7051V7.22H4.48508V19H1.74508V4.8ZM22.5698 19.1C21.5298 19.1 20.5831 18.9 19.7298 18.5C18.8898 18.0867 18.1631 17.5467 17.5498 16.88C16.9498 16.2 16.4831 15.4267 16.1498 14.56C15.8164 13.6933 15.6498 12.8067 15.6498 11.9C15.6498 10.9533 15.8231 10.0467 16.1698 9.18C16.5298 8.31333 17.0164 7.54667 17.6298 6.88C18.2564 6.21333 18.9964 5.68667 19.8498 5.3C20.7031 4.9 21.6298 4.7 22.6298 4.7C23.6564 4.7 24.5898 4.91333 25.4298 5.34C26.2831 5.75333 27.0098 6.3 27.6098 6.98C28.2098 7.66 28.6764 8.43333 29.0098 9.3C29.3431 10.1667 29.5098 11.0467 29.5098 11.94C29.5098 12.8867 29.3364 13.7933 28.9898 14.66C28.6431 15.5133 28.1631 16.2733 27.5498 16.94C26.9364 17.5933 26.2031 18.12 25.3498 18.52C24.4964 18.9067 23.5698 19.1 22.5698 19.1ZM18.4498 11.9C18.4498 12.5133 18.5431 13.1067 18.7298 13.68C18.9164 14.2533 19.1831 14.76 19.5298 15.2C19.8898 15.64 20.3231 15.9933 20.8298 16.26C21.3498 16.5267 21.9364 16.66 22.5898 16.66C23.2564 16.66 23.8431 16.5267 24.3498 16.26C24.8698 15.98 25.3031 15.6133 25.6498 15.16C26.0098 14.7067 26.2764 14.2 26.4498 13.64C26.6364 13.0667 26.7298 12.4867 26.7298 11.9C26.7298 11.2867 26.6298 10.6933 26.4298 10.12C26.2431 9.54667 25.9698 9.04 25.6098 8.6C25.2631 8.16 24.8298 7.81333 24.3098 7.56C23.8031 7.29333 23.2298 7.16 22.5898 7.16C21.9231 7.16 21.3298 7.3 20.8098 7.58C20.2898 7.84667 19.8564 8.20667 19.5098 8.66C19.1631 9.1 18.8964 9.60667 18.7098 10.18C18.5364 10.74 18.4498 11.3133 18.4498 11.9ZM29.842 16.58H30.342C30.7286 16.5667 31.0686 16.4533 31.362 16.24C31.6553 16.0267 31.9153 15.6333 32.142 15.06C32.3686 14.4867 32.5686 13.7 32.742 12.7C32.9153 11.6867 33.0753 10.3867 33.222 8.8L33.582 4.8H42.182V16.58H44.282V22.54H41.702V19H32.442V22.54H29.842V16.58ZM39.422 16.58V7.22H36.082L35.882 9.38C35.722 11.2333 35.4953 12.74 35.202 13.9C34.922 15.06 34.5553 15.9533 34.102 16.58H39.422ZM46.1787 19V4.8H52.1987C52.852 4.8 53.452 4.94 53.9987 5.22C54.5587 5.48667 55.0387 5.84667 55.4387 6.3C55.8387 6.74 56.152 7.24667 56.3787 7.82C56.6053 8.38 56.7187 8.94667 56.7187 9.52C56.7187 10.12 56.612 10.7067 56.3987 11.28C56.1853 11.84 55.8853 12.34 55.4987 12.78C55.112 13.22 54.6453 13.5733 54.0987 13.84C53.552 14.1067 52.952 14.24 52.2987 14.24H48.9387V19H46.1787ZM48.9387 11.82H52.1387C52.6453 11.82 53.0653 11.6133 53.3987 11.2C53.7453 10.7867 53.9187 10.2267 53.9187 9.52C53.9187 9.16 53.8653 8.84 53.7587 8.56C53.652 8.26667 53.512 8.02 53.3387 7.82C53.1653 7.62 52.9587 7.47333 52.7187 7.38C52.492 7.27333 52.2587 7.22 52.0187 7.22H48.9387V11.82ZM64.7182 19.1C63.6782 19.1 62.7315 18.9 61.8782 18.5C61.0382 18.0867 60.3115 17.5467 59.6982 16.88C59.0982 16.2 58.6315 15.4267 58.2982 14.56C57.9649 13.6933 57.7982 12.8067 57.7982 11.9C57.7982 10.9533 57.9715 10.0467 58.3182 9.18C58.6782 8.31333 59.1649 7.54667 59.7782 6.88C60.4049 6.21333 61.1449 5.68667 61.9982 5.3C62.8515 4.9 63.7782 4.7 64.7782 4.7C65.8049 4.7 66.7382 4.91333 67.5782 5.34C68.4315 5.75333 69.1582 6.3 69.7582 6.98C70.3582 7.66 70.8249 8.43333 71.1582 9.3C71.4915 10.1667 71.6582 11.0467 71.6582 11.94C71.6582 12.8867 71.4849 13.7933 71.1382 14.66C70.7915 15.5133 70.3115 16.2733 69.6982 16.94C69.0849 17.5933 68.3515 18.12 67.4982 18.52C66.6449 18.9067 65.7182 19.1 64.7182 19.1ZM60.5982 11.9C60.5982 12.5133 60.6915 13.1067 60.8782 13.68C61.0649 14.2533 61.3315 14.76 61.6782 15.2C62.0382 15.64 62.4715 15.9933 62.9782 16.26C63.4982 16.5267 64.0849 16.66 64.7382 16.66C65.4049 16.66 65.9915 16.5267 66.4982 16.26C67.0182 15.98 67.4515 15.6133 67.7982 15.16C68.1582 14.7067 68.4249 14.2 68.5982 13.64C68.7849 13.0667 68.8782 12.4867 68.8782 11.9C68.8782 11.2867 68.7782 10.6933 68.5782 10.12C68.3915 9.54667 68.1182 9.04 67.7582 8.6C67.4115 8.16 66.9782 7.81333 66.4582 7.56C65.9515 7.29333 65.3782 7.16 64.7382 7.16C64.0715 7.16 63.4782 7.3 62.9582 7.58C62.4382 7.84667 62.0049 8.20667 61.6582 8.66C61.3115 9.1 61.0449 9.60667 60.8582 10.18C60.6849 10.74 60.5982 11.3133 60.5982 11.9ZM73.8154 4.8H84.1954V7.22H76.5554V10.48H80.4754C81.1687 10.48 81.7954 10.5733 82.3554 10.76C82.9287 10.9467 83.4154 11.22 83.8154 11.58C84.2287 11.94 84.5421 12.38 84.7554 12.9C84.9821 13.42 85.0954 14.02 85.0954 14.7C85.0954 16.0867 84.6821 17.1533 83.8554 17.9C83.0421 18.6333 81.9487 19 80.5754 19H73.8154V4.8ZM80.3154 16.66C80.9687 16.66 81.4621 16.4867 81.7954 16.14C82.1287 15.78 82.2954 15.2933 82.2954 14.68C82.2954 14.0933 82.1287 13.62 81.7954 13.26C81.4621 12.9 80.9687 12.72 80.3154 12.72H76.5554V16.66H80.3154ZM99.1148 4.8V19H96.3748V12.94H89.9348V19H87.1748V4.8H89.9348V10.54H96.3748V4.8H99.1148ZM112.054 16.58V19H102.194V4.8H111.874V7.22H104.954V10.64H110.934V12.88H104.954V16.58H112.054ZM124.125 16.58V19H114.265V4.8H123.945V7.22H117.025V10.64H123.005V12.88H117.025V16.58H124.125Z" fill="white"/>
<path d="M156.354 12.3536C156.549 12.1583 156.549 11.8417 156.354 11.6464L153.172 8.46447C152.976 8.2692 152.66 8.2692 152.464 8.46447C152.269 8.65973 152.269 8.97631 152.464 9.17157L155.293 12L152.464 14.8284C152.269 15.0237 152.269 15.3403 152.464 15.5355C152.66 15.7308 152.976 15.7308 153.172 15.5355L156.354 12.3536ZM131 12.5H156V11.5H131V12.5Z" fill="white"/>
</svg>
