<svg width="167" height="23" viewBox="0 0 167 23" fill="none" xmlns="http://www.w3.org/2000/svg">
<path d="M1.3 4.8H13.48V19H9.58V8.2H5.2V19H1.3V4.8ZM23.8052 19.12C22.7252 19.12 21.7452 18.9133 20.8652 18.5C19.9852 18.0867 19.2318 17.5467 18.6052 16.88C17.9785 16.2 17.4918 15.4267 17.1452 14.56C16.7985 13.6933 16.6252 12.8 16.6252 11.88C16.6252 10.9467 16.8052 10.0467 17.1652 9.18C17.5252 8.31333 18.0252 7.55333 18.6652 6.9C19.3185 6.23333 20.0852 5.70667 20.9652 5.32C21.8585 4.92 22.8318 4.72 23.8852 4.72C24.9652 4.72 25.9452 4.92667 26.8252 5.34C27.7052 5.75333 28.4585 6.3 29.0852 6.98C29.7118 7.66 30.1918 8.43333 30.5252 9.3C30.8718 10.1667 31.0452 11.0533 31.0452 11.96C31.0452 12.8933 30.8652 13.7933 30.5052 14.66C30.1452 15.5133 29.6452 16.2733 29.0052 16.94C28.3652 17.5933 27.5985 18.12 26.7052 18.52C25.8252 18.92 24.8585 19.12 23.8052 19.12ZM20.5852 11.92C20.5852 12.4 20.6518 12.8667 20.7852 13.32C20.9185 13.76 21.1185 14.1533 21.3852 14.5C21.6518 14.8467 21.9852 15.1267 22.3852 15.34C22.7985 15.5533 23.2852 15.66 23.8452 15.66C24.4052 15.66 24.8918 15.5533 25.3052 15.34C25.7185 15.1133 26.0518 14.8267 26.3052 14.48C26.5718 14.12 26.7652 13.7133 26.8852 13.26C27.0185 12.8067 27.0852 12.3467 27.0852 11.88C27.0852 11.4 27.0185 10.94 26.8852 10.5C26.7518 10.0467 26.5452 9.65333 26.2652 9.32C25.9985 8.97333 25.6585 8.7 25.2452 8.5C24.8452 8.28667 24.3718 8.18 23.8252 8.18C23.2652 8.18 22.7785 8.28667 22.3652 8.5C21.9652 8.71333 21.6318 9 21.3652 9.36C21.0985 9.70667 20.8985 10.1067 20.7652 10.56C20.6452 11 20.5852 11.4533 20.5852 11.92ZM32.7684 15.6H33.6484C33.9818 15.6 34.2618 15.4867 34.4884 15.26C34.7284 15.02 34.9351 14.64 35.1084 14.12C35.2818 13.6 35.4284 12.92 35.5484 12.08C35.6684 11.2267 35.7884 10.1867 35.9084 8.96L36.2884 4.8H46.2084V15.6H48.2084V22.32H44.4084V19H36.5684V22.32H32.7684V15.6ZM42.3084 15.6V8.2H39.7884L39.6084 10.12C39.5018 11.32 39.3484 12.3667 39.1484 13.26C38.9618 14.1533 38.7351 14.9333 38.4684 15.6H42.3084ZM51.3008 19V4.8H57.4208C58.1141 4.8 58.7541 4.94667 59.3408 5.24C59.9274 5.52 60.4274 5.89333 60.8408 6.36C61.2674 6.81333 61.6008 7.34 61.8408 7.94C62.0808 8.52667 62.2008 9.12 62.2008 9.72C62.2008 10.3467 62.0874 10.96 61.8608 11.56C61.6341 12.1467 61.3141 12.6733 60.9008 13.14C60.5008 13.5933 60.0074 13.96 59.4208 14.24C58.8474 14.5067 58.2141 14.64 57.5208 14.64H55.2008V19H51.3008ZM55.2008 11.24H57.2608C57.5008 11.24 57.7208 11.1333 57.9208 10.92C58.1341 10.6933 58.2408 10.2933 58.2408 9.72C58.2408 9.13333 58.1208 8.73333 57.8808 8.52C57.6408 8.30667 57.4008 8.2 57.1608 8.2H55.2008V11.24ZM71.5598 19.12C70.4798 19.12 69.4998 18.9133 68.6198 18.5C67.7398 18.0867 66.9865 17.5467 66.3598 16.88C65.7332 16.2 65.2465 15.4267 64.8998 14.56C64.5532 13.6933 64.3798 12.8 64.3798 11.88C64.3798 10.9467 64.5598 10.0467 64.9198 9.18C65.2798 8.31333 65.7798 7.55333 66.4198 6.9C67.0732 6.23333 67.8398 5.70667 68.7198 5.32C69.6132 4.92 70.5865 4.72 71.6398 4.72C72.7198 4.72 73.6998 4.92667 74.5798 5.34C75.4598 5.75333 76.2132 6.3 76.8398 6.98C77.4665 7.66 77.9465 8.43333 78.2798 9.3C78.6265 10.1667 78.7998 11.0533 78.7998 11.96C78.7998 12.8933 78.6198 13.7933 78.2598 14.66C77.8998 15.5133 77.3998 16.2733 76.7598 16.94C76.1198 17.5933 75.3532 18.12 74.4598 18.52C73.5798 18.92 72.6132 19.12 71.5598 19.12ZM68.3398 11.92C68.3398 12.4 68.4065 12.8667 68.5398 13.32C68.6732 13.76 68.8732 14.1533 69.1398 14.5C69.4065 14.8467 69.7398 15.1267 70.1398 15.34C70.5532 15.5533 71.0398 15.66 71.5998 15.66C72.1598 15.66 72.6465 15.5533 73.0598 15.34C73.4732 15.1133 73.8065 14.8267 74.0598 14.48C74.3265 14.12 74.5198 13.7133 74.6398 13.26C74.7732 12.8067 74.8398 12.3467 74.8398 11.88C74.8398 11.4 74.7732 10.94 74.6398 10.5C74.5065 10.0467 74.2998 9.65333 74.0198 9.32C73.7532 8.97333 73.4132 8.7 72.9998 8.5C72.5998 8.28667 72.1265 8.18 71.5798 8.18C71.0198 8.18 70.5332 8.28667 70.1198 8.5C69.7198 8.71333 69.3865 9 69.1198 9.36C68.8532 9.70667 68.6532 10.1067 68.5198 10.56C68.3998 11 68.3398 11.4533 68.3398 11.92ZM81.9328 4.8H92.7928V8.2H85.8328V10.3H88.7528C90.4595 10.3 91.7461 10.68 92.6128 11.44C93.4795 12.1867 93.9128 13.2267 93.9128 14.56C93.9128 15.9467 93.4995 17.0333 92.6728 17.82C91.8461 18.6067 90.6061 19 88.9528 19H81.9328V4.8ZM88.3928 15.72C88.8995 15.72 89.2795 15.6133 89.5328 15.4C89.7995 15.1867 89.9328 14.8933 89.9328 14.52C89.9328 14.2 89.7995 13.9267 89.5328 13.7C89.2795 13.46 88.8995 13.34 88.3928 13.34H85.8328V15.72H88.3928ZM109.506 4.8V19H105.606V13.44H100.846V19H96.9461V4.8H100.846V10.04H105.606V4.8H109.506ZM123.622 15.6V19H113.502V4.8H123.442V8.2H117.402V10.2H122.562V13.36H117.402V15.6H123.622ZM137.034 15.6V19H126.914V4.8H136.854V8.2H130.814V10.2H135.974V13.36H130.814V15.6H137.034Z" fill="black"/>
<path d="M166.354 12.3536C166.549 12.1583 166.549 11.8417 166.354 11.6464L163.172 8.46447C162.976 8.2692 162.66 8.2692 162.464 8.46447C162.269 8.65973 162.269 8.97631 162.464 9.17157L165.293 12L162.464 14.8284C162.269 15.0237 162.269 15.3403 162.464 15.5355C162.66 15.7308 162.976 15.7308 163.172 15.5355L166.354 12.3536ZM144 12.5H166V11.5H144V12.5Z" fill="black"/>
</svg>
