<svg width="45" height="25" viewBox="0 0 45 25" fill="none" xmlns="http://www.w3.org/2000/svg">
<path d="M21.88 12.28C21.88 14.04 21.6133 15.6667 21.08 17.16C20.5467 18.6267 19.8 19.9067 18.84 21C17.9067 22.0667 16.7867 22.9067 15.48 23.52C14.2 24.1067 12.8 24.4 11.28 24.4C9.76 24.4 8.34667 24.1067 7.04 23.52C5.76 22.9067 4.64 22.0667 3.68 21C2.74667 19.9067 2.01333 18.6267 1.48 17.16C0.946667 15.6667 0.68 14.04 0.68 12.28C0.68 10.52 0.946667 8.90667 1.48 7.44C2.01333 5.94667 2.74667 4.66667 3.68 3.6C4.64 2.50667 5.76 1.65333 7.04 1.04C8.34667 0.426667 9.76 0.12 11.28 0.12C12.8 0.12 14.2 0.426667 15.48 1.04C16.7867 1.65333 17.9067 2.50667 18.84 3.6C19.8 4.66667 20.5467 5.94667 21.08 7.44C21.6133 8.90667 21.88 10.52 21.88 12.28ZM14.2 12.28C14.2 10.7333 13.92 9.48 13.36 8.52C12.8267 7.56 12.1333 7.08 11.28 7.08C10.3733 7.08 9.64 7.56 9.08 8.52C8.54667 9.48 8.28 10.7333 8.28 12.28C8.28 13.8267 8.54667 15.08 9.08 16.04C9.64 16.9733 10.3733 17.44 11.28 17.44C12.1333 17.44 12.8267 16.9733 13.36 16.04C13.92 15.08 14.2 13.8267 14.2 12.28ZM44.4903 17.2V24H25.9703V17.2H31.6503V9.24C31.4103 9.56 31.037 9.88 30.5303 10.2C30.0236 10.4933 29.4503 10.7733 28.8103 11.04C28.197 11.3067 27.5703 11.52 26.9303 11.68C26.2903 11.84 25.717 11.92 25.2103 11.92V4.96C25.5836 4.96 26.1036 4.82667 26.7703 4.56C27.437 4.26667 28.1036 3.93333 28.7703 3.56C29.437 3.16 30.037 2.74667 30.5703 2.32C31.1303 1.86667 31.4903 1.48 31.6503 1.16H39.4103V17.2H44.4903Z" fill="#C8C8C8"/>
</svg>
