<svg width="46" height="25" viewBox="0 0 46 25" fill="none" xmlns="http://www.w3.org/2000/svg">
<path d="M21.88 12.28C21.88 14.04 21.6133 15.6667 21.08 17.16C20.5467 18.6267 19.8 19.9067 18.84 21C17.9067 22.0667 16.7867 22.9067 15.48 23.52C14.2 24.1067 12.8 24.4 11.28 24.4C9.76 24.4 8.34667 24.1067 7.04 23.52C5.76 22.9067 4.64 22.0667 3.68 21C2.74667 19.9067 2.01333 18.6267 1.48 17.16C0.946667 15.6667 0.68 14.04 0.68 12.28C0.68 10.52 0.946667 8.90667 1.48 7.44C2.01333 5.94667 2.74667 4.66667 3.68 3.6C4.64 2.50667 5.76 1.65333 7.04 1.04C8.34667 0.426667 9.76 0.12 11.28 0.12C12.8 0.12 14.2 0.426667 15.48 1.04C16.7867 1.65333 17.9067 2.50667 18.84 3.6C19.8 4.66667 20.5467 5.94667 21.08 7.44C21.6133 8.90667 21.88 10.52 21.88 12.28ZM14.2 12.28C14.2 10.7333 13.92 9.48 13.36 8.52C12.8267 7.56 12.1333 7.08 11.28 7.08C10.3733 7.08 9.64 7.56 9.08 8.52C8.54667 9.48 8.28 10.7333 8.28 12.28C8.28 13.8267 8.54667 15.08 9.08 16.04C9.64 16.9733 10.3733 17.44 11.28 17.44C12.1333 17.44 12.8267 16.9733 13.36 16.04C13.92 15.08 14.2 13.8267 14.2 12.28ZM24.8103 24C24.8103 22.6667 24.917 21.4933 25.1303 20.48C25.3436 19.4667 25.6903 18.56 26.1703 17.76C26.6503 16.9333 27.2636 16.2 28.0103 15.56C28.7836 14.92 29.7303 14.2933 30.8503 13.68C32.2903 12.9067 33.4236 12.2933 34.2503 11.84C35.1036 11.36 35.7436 10.9733 36.1703 10.68C36.597 10.3867 36.8636 10.1467 36.9703 9.96C37.1036 9.74667 37.1703 9.52 37.1703 9.28C37.1703 8.61333 36.957 8.12 36.5303 7.8C36.1036 7.48 35.517 7.32 34.7703 7.32C33.8903 7.32 33.0503 7.54667 32.2503 8C31.477 8.45333 30.6636 9.18667 29.8103 10.2L25.0103 4.56C25.517 4 26.1703 3.49333 26.9703 3.04C27.7703 2.56 28.6503 2.16 29.6103 1.84C30.597 1.49333 31.637 1.22667 32.7303 1.04C33.8236 0.853333 34.9436 0.759999 36.0903 0.759999C39.157 0.759999 41.477 1.4 43.0503 2.68C44.6503 3.93333 45.4503 5.69333 45.4503 7.96C45.4503 8.78667 45.3436 9.52 45.1303 10.16C44.917 10.8 44.6236 11.3867 44.2503 11.92C43.9036 12.4267 43.477 12.8933 42.9703 13.32C42.4636 13.7467 41.9303 14.1467 41.3703 14.52C40.7036 14.9733 39.997 15.4133 39.2503 15.84C38.5303 16.24 37.8103 16.6933 37.0903 17.2H45.8903V24H24.8103Z" fill="white"/>
</svg>
