<svg width="46" height="30" viewBox="0 0 46 30" fill="none" xmlns="http://www.w3.org/2000/svg">
<path d="M21.88 12.28C21.88 14.04 21.6133 15.6667 21.08 17.16C20.5467 18.6267 19.8 19.9067 18.84 21C17.9067 22.0667 16.7867 22.9067 15.48 23.52C14.2 24.1067 12.8 24.4 11.28 24.4C9.76 24.4 8.34667 24.1067 7.04 23.52C5.76 22.9067 4.64 22.0667 3.68 21C2.74667 19.9067 2.01333 18.6267 1.48 17.16C0.946667 15.6667 0.68 14.04 0.68 12.28C0.68 10.52 0.946667 8.90667 1.48 7.44C2.01333 5.94667 2.74667 4.66667 3.68 3.6C4.64 2.50667 5.76 1.65333 7.04 1.04C8.34667 0.426667 9.76 0.12 11.28 0.12C12.8 0.12 14.2 0.426667 15.48 1.04C16.7867 1.65333 17.9067 2.50667 18.84 3.6C19.8 4.66667 20.5467 5.94667 21.08 7.44C21.6133 8.90667 21.88 10.52 21.88 12.28ZM14.2 12.28C14.2 10.7333 13.92 9.48 13.36 8.52C12.8267 7.56 12.1333 7.08 11.28 7.08C10.3733 7.08 9.64 7.56 9.08 8.52C8.54667 9.48 8.28 10.7333 8.28 12.28C8.28 13.8267 8.54667 15.08 9.08 16.04C9.64 16.9733 10.3733 17.44 11.28 17.44C12.1333 17.44 12.8267 16.9733 13.36 16.04C13.92 15.08 14.2 13.8267 14.2 12.28ZM34.4503 29.08V24.12H24.1703V17.32L36.8503 1.16H42.0503V17.32H45.5703V24.12H42.0503V29.08H34.4503ZM31.6503 17.32H35.3303V12.52L31.6503 17.32Z" fill="#C8C8C8"/>
</svg>
