<svg width="46" height="30" viewBox="0 0 46 30" fill="none" xmlns="http://www.w3.org/2000/svg">
<path d="M21.88 12.28C21.88 14.04 21.6133 15.6667 21.08 17.16C20.5467 18.6267 19.8 19.9067 18.84 21C17.9067 22.0667 16.7867 22.9067 15.48 23.52C14.2 24.1067 12.8 24.4 11.28 24.4C9.76 24.4 8.34667 24.1067 7.04 23.52C5.76 22.9067 4.64 22.0667 3.68 21C2.74667 19.9067 2.01333 18.6267 1.48 17.16C0.946667 15.6667 0.68 14.04 0.68 12.28C0.68 10.52 0.946667 8.90667 1.48 7.44C2.01333 5.94667 2.74667 4.66667 3.68 3.6C4.64 2.50667 5.76 1.65333 7.04 1.04C8.34667 0.426667 9.76 0.12 11.28 0.12C12.8 0.12 14.2 0.426667 15.48 1.04C16.7867 1.65333 17.9067 2.50667 18.84 3.6C19.8 4.66667 20.5467 5.94667 21.08 7.44C21.6133 8.90667 21.88 10.52 21.88 12.28ZM14.2 12.28C14.2 10.7333 13.92 9.48 13.36 8.52C12.8267 7.56 12.1333 7.08 11.28 7.08C10.3733 7.08 9.64 7.56 9.08 8.52C8.54667 9.48 8.28 10.7333 8.28 12.28C8.28 13.8267 8.54667 15.08 9.08 16.04C9.64 16.9733 10.3733 17.44 11.28 17.44C12.1333 17.44 12.8267 16.9733 13.36 16.04C13.92 15.08 14.2 13.8267 14.2 12.28ZM35.5703 10.96C36.957 10.96 38.2236 11.1867 39.3703 11.64C40.517 12.0933 41.5036 12.7333 42.3303 13.56C43.1836 14.36 43.837 15.3333 44.2903 16.48C44.7703 17.6 45.0103 18.84 45.0103 20.2C45.0103 21.64 44.7436 22.96 44.2103 24.16C43.677 25.36 42.917 26.3867 41.9303 27.24C40.9703 28.0933 39.8103 28.76 38.4503 29.24C37.117 29.72 35.637 29.96 34.0103 29.96C31.9303 29.96 30.0503 29.5733 28.3703 28.8C26.717 28.0267 25.437 26.92 24.5303 25.48L28.6903 20.68C29.4636 21.5067 30.317 22.16 31.2503 22.64C32.2103 23.0933 33.1436 23.32 34.0503 23.32C35.037 23.32 35.8103 23.0533 36.3703 22.52C36.9303 21.9867 37.2103 21.2667 37.2103 20.36C37.2103 19.48 36.957 18.7733 36.4503 18.24C35.9436 17.7067 35.277 17.44 34.4503 17.44C33.8903 17.44 33.3703 17.5733 32.8903 17.84C32.437 18.08 32.0903 18.4133 31.8503 18.84H25.3303L28.6903 1.16H42.9303V8.08H34.1703L33.7303 11.16C33.837 11.1333 33.9836 11.1067 34.1703 11.08C34.3036 11.0533 34.4903 11.0267 34.7303 11C34.9703 10.9733 35.2503 10.96 35.5703 10.96Z" fill="#C8C8C8"/>
</svg>
