<svg width="24" height="30" viewBox="0 0 24 30" fill="none" xmlns="http://www.w3.org/2000/svg">
<path d="M11.9725 0C5.52585 0 0.28125 5.2446 0.28125 11.6913C0.28125 14.2472 1.09126 16.6752 2.62386 18.7125C4.03033 20.5822 6.00101 22.0093 8.20422 22.7609L11.9725 30L15.7408 22.7609C17.9441 22.0093 19.9147 20.5822 21.3214 18.7125C22.8538 16.6752 23.6638 14.2472 23.6638 11.6913C23.6638 5.2446 18.4192 0 11.9725 0ZM14.8757 21.2025L14.5243 21.3094L11.9725 26.2115L9.42073 21.3094L9.0694 21.2025C4.85934 19.9189 2.03059 16.0968 2.03059 11.6913C2.03059 6.20934 6.49059 1.74934 11.9725 1.74934C17.4545 1.74934 21.9145 6.20934 21.9145 11.6913C21.9145 16.0968 19.0857 19.9189 14.8757 21.2025Z" fill="#991B1F"/>
</svg>
