<svg width="170" height="68" viewBox="0 0 170 68" fill="none" xmlns="http://www.w3.org/2000/svg">
<path d="M142.388 59.02C141.468 59.02 140.583 58.9339 139.723 58.7494C138.863 58.5649 138.17 58.3312 137.632 58.0359L138.409 54.4441H138.97C139.341 55.0222 139.759 55.6126 140.225 56.2277C140.691 56.8427 141.109 57.3225 141.48 57.6792C141.802 57.7776 142.184 57.8268 142.615 57.8268C144.192 57.8268 144.992 57.3348 144.992 56.3507C144.992 55.9571 144.873 55.6003 144.634 55.2805C144.395 54.9607 144.084 54.6901 143.702 54.4441C143.32 54.2103 142.83 53.9274 142.22 53.6322L141.85 53.4354C141.025 53.0294 140.344 52.6481 139.807 52.2791C139.269 51.91 138.827 51.4549 138.481 50.9014C138.134 50.3478 137.955 49.6836 137.955 48.8963C137.955 47.617 138.457 46.6452 139.448 45.9933C140.452 45.329 141.79 44.9969 143.463 44.9969C144.108 44.9969 144.801 45.0584 145.53 45.1937C146.271 45.329 146.916 45.5012 147.478 45.7103L146.868 49.2161H146.295C145.375 47.7277 144.67 46.7559 144.168 46.2885C143.69 46.227 143.343 46.2024 143.14 46.2024C142.519 46.2024 142.041 46.3131 141.718 46.5468C141.408 46.7805 141.241 47.1003 141.241 47.5186C141.241 47.9245 141.348 48.2935 141.575 48.6257C141.802 48.9455 142.101 49.2407 142.483 49.4868C142.866 49.7328 143.355 50.0157 143.953 50.3109L144.323 50.4954C145.124 50.889 145.793 51.2704 146.342 51.6517C146.892 52.033 147.346 52.5005 147.717 53.0417C148.075 53.5953 148.266 54.2349 148.266 54.973C148.266 55.8464 148.015 56.5844 147.513 57.1995C147.012 57.8145 146.307 58.2697 145.434 58.5772C144.538 58.8724 143.535 59.02 142.388 59.02ZM133.283 59.02C132.16 59.02 131.24 58.7125 130.523 58.1097C129.818 57.4947 129.46 56.5967 129.46 55.3912V46.5345H127.811V45.7103L129.424 44.2834L132.566 41.7863H133.295V45.329H137.166V46.5345H133.379V54.9361C133.379 55.6003 133.522 56.0924 133.809 56.3753C134.095 56.6705 134.514 56.8181 135.075 56.8181C135.493 56.8181 135.84 56.7443 136.127 56.5844C136.413 56.4245 136.736 56.1908 137.095 55.8956L137.704 56.8427C137.226 57.4578 136.605 57.9745 135.828 58.405C135.051 58.8109 134.203 59.02 133.283 59.02ZM112.338 58.1713L113.927 56.5598V48.3305L112.481 46.6206V46.0917L117.392 44.9969L117.738 45.3413L117.583 47.3095H117.858C118.503 46.6206 119.232 46.0548 120.032 45.6242C120.833 45.1937 121.681 44.9723 122.577 44.9723C123.318 44.9723 123.999 45.1445 124.609 45.4643C125.206 45.7964 125.684 46.2516 126.03 46.842C126.377 47.4325 126.544 48.0967 126.544 48.8471V56.5475L128.121 58.159V58.7002H121.108V58.159L122.613 56.5475V49.5606C122.613 48.8225 122.434 48.2197 122.088 47.7646C121.741 47.3094 121.287 47.088 120.737 47.088C120.247 47.088 119.746 47.2726 119.232 47.6293C118.73 47.9983 118.276 48.4165 117.87 48.884V56.5475L119.375 58.159V58.7002H112.362V58.1713H112.338ZM106.603 46.227C105.79 46.227 105.205 46.6698 104.846 47.5432C104.488 48.4165 104.285 49.4745 104.225 50.7169L108.658 50.4339C108.658 48.8963 108.49 47.8015 108.144 47.1742C107.809 46.5345 107.284 46.227 106.603 46.227ZM108.192 56.8058C108.67 56.8058 109.112 56.7197 109.506 56.5352C109.9 56.3507 110.247 56.1293 110.522 55.8956C110.796 55.6618 111.107 55.3543 111.442 54.973L112.266 55.8833C111.489 56.9042 110.641 57.6792 109.745 58.2204C108.837 58.7617 107.75 59.0323 106.447 59.0323C105.193 59.0323 104.082 58.7494 103.138 58.1713C102.194 57.5931 101.453 56.7935 100.939 55.7726C100.413 54.7516 100.162 53.5707 100.162 52.2545C100.162 50.8399 100.437 49.5728 100.999 48.4657C101.56 47.3587 102.349 46.5099 103.353 45.8948C104.356 45.2798 105.515 44.9723 106.806 44.9723C107.989 44.9723 109.028 45.2675 109.9 45.8579C110.773 46.4484 111.442 47.2357 111.896 48.2567C112.35 49.2653 112.577 50.397 112.577 51.6517H104.201C104.213 52.6727 104.404 53.583 104.739 54.3579C105.085 55.1329 105.551 55.7357 106.16 56.1662C106.77 56.5967 107.451 56.8058 108.192 56.8058ZM89.4449 47.4694L88.0947 45.8579V45.329H95.0606V45.8579L93.806 47.4817L96.0642 53.829L98.5255 47.4817L97.271 45.8579V45.329H101.321V45.8579L99.8399 47.5063L95.2637 58.7248H94.0808L89.4449 47.4694ZM73.5417 58.1835L75.3101 55.9571V42.4259L73.5417 40.2118V39.6705H83.8889L87.5332 39.3876L88.0589 44.1235L87.342 44.1358L83.9009 41.0851H79.504V48.2567H82.73L84.331 46.0179H84.9284V51.9346H84.331L82.73 49.6589H79.504V57.3102H84.2354L88.3218 54.0996L88.8355 54.1119L88.3695 58.7125H73.5417V58.1835ZM165.579 28.6119C164.456 28.6119 163.536 28.3044 162.819 27.7016C162.114 27.0866 161.756 26.1886 161.756 24.9831V16.1264H160.107V15.3022L161.72 13.8753L164.862 11.3782H165.591V14.9209H169.462V16.1264H165.675V24.528C165.675 25.1922 165.818 25.6843 166.105 25.9672C166.392 26.2624 166.81 26.41 167.371 26.41C167.79 26.41 168.136 26.3362 168.423 26.1763C168.71 26.0164 169.032 25.7827 169.391 25.4875L170 26.4346C169.522 27.0497 168.901 27.5663 168.124 27.9969C167.336 28.3905 166.499 28.6119 165.579 28.6119ZM153.022 27.4064C154.073 27.4064 154.85 26.9636 155.34 26.0902C155.829 25.2045 156.08 23.8637 156.08 22.0678C156.08 20.2472 155.829 18.8818 155.34 17.9962C154.85 17.1105 154.133 16.6676 153.201 16.6676C152.687 16.6676 152.209 16.8276 151.779 17.1474C151.337 17.4672 151.002 17.8362 150.775 18.2422V25.9795C150.978 26.3977 151.289 26.7422 151.695 27.0128C152.125 27.2711 152.556 27.4064 153.022 27.4064ZM145.267 33.2494L146.868 31.638V17.91L145.422 16.2125V15.659L150.333 14.5765L150.68 14.9209L150.524 16.8891H150.787C151.361 16.1879 151.994 15.6344 152.687 15.2038C153.38 14.7733 154.109 14.5642 154.874 14.5642C155.937 14.5642 156.869 14.8348 157.681 15.3883C158.494 15.9296 159.127 16.7045 159.581 17.7132C160.035 18.7096 160.262 19.8659 160.262 21.1821C160.262 22.609 159.987 23.8883 159.438 25.0077C158.888 26.1271 158.088 27.0128 157.048 27.6525C156.009 28.2921 154.766 28.6119 153.332 28.6119C152.412 28.6119 151.564 28.4028 150.775 27.9846V31.6626L152.544 33.2617V33.803H145.267V33.2494ZM139.329 15.8066C138.516 15.8066 137.931 16.2494 137.572 17.1228C137.214 17.9962 137.011 19.054 136.951 20.2964L141.384 20.0135C141.384 18.4759 141.217 17.3811 140.87 16.7537C140.536 16.1264 140.01 15.8066 139.329 15.8066ZM140.918 26.3855C141.396 26.3855 141.838 26.2993 142.232 26.1148C142.627 25.9303 142.973 25.7089 143.248 25.4752C143.523 25.2414 143.833 24.9339 144.168 24.5526L144.992 25.4629C144.216 26.4839 143.367 27.2588 142.471 27.8001C141.563 28.3413 140.476 28.6119 139.174 28.6119C137.919 28.6119 136.808 28.329 135.864 27.7508C134.92 27.1727 134.179 26.3732 133.665 25.3522C133.14 24.3312 132.889 23.1503 132.889 21.8341C132.889 20.4194 133.164 19.1525 133.725 18.0454C134.287 16.9383 135.075 16.0895 136.079 15.4744C137.083 14.8594 138.242 14.5518 139.532 14.5518C140.715 14.5518 141.754 14.8471 142.627 15.4375C143.499 16.028 144.168 16.8153 144.622 17.8362C145.076 18.8449 145.303 19.9766 145.303 21.2313H136.927C136.939 22.2523 137.13 23.1626 137.465 23.9375C137.811 24.7125 138.277 25.3152 138.887 25.7458C139.496 26.1763 140.177 26.3855 140.918 26.3855ZM126.688 28.6119C125.469 28.6119 124.394 28.3413 123.462 27.7754C122.518 27.2219 121.789 26.4346 121.275 25.4137C120.749 24.3927 120.486 23.2241 120.486 21.8833C120.486 20.4441 120.797 19.1647 121.406 18.0576C122.028 16.9506 122.876 16.0895 123.975 15.4744C125.063 14.8594 126.317 14.5518 127.703 14.5518C128.408 14.5518 129.173 14.6257 129.985 14.7733C130.798 14.9209 131.455 15.0931 131.969 15.2899L131.335 19.1894H130.631C129.794 17.787 129.029 16.6676 128.36 15.8435C128.289 15.8312 128.193 15.8066 128.074 15.782C127.954 15.7573 127.835 15.745 127.739 15.745C127.13 15.745 126.592 15.9419 126.114 16.3355C125.636 16.7291 125.266 17.295 125.003 18.0331C124.74 18.7711 124.609 19.6322 124.609 20.604C124.609 21.7972 124.776 22.8182 125.087 23.6915C125.409 24.5526 125.863 25.2169 126.449 25.6843C127.034 26.1394 127.715 26.3731 128.492 26.3731C129.137 26.3731 129.734 26.2009 130.308 25.8688C130.881 25.5244 131.395 25.1184 131.861 24.6264L132.614 25.4752C131.933 26.4223 131.108 27.1727 130.117 27.7385C129.113 28.3167 127.978 28.6119 126.688 28.6119ZM104.798 27.7508L106.388 26.1394V17.91L104.942 16.2002V15.6712L109.853 14.5765L110.199 14.9209L110.044 16.8891H110.318C110.964 16.2002 111.693 15.6344 112.493 15.2038C113.294 14.7733 114.142 14.5518 115.038 14.5518C115.779 14.5518 116.46 14.7241 117.069 15.0439C117.667 15.376 118.145 15.8312 118.491 16.4216C118.838 17.0121 119.005 17.6763 119.005 18.4267V26.1148L120.582 27.7263V28.2675H113.568V27.7263L115.074 26.1148V19.1278C115.074 18.3898 114.895 17.787 114.548 17.3319C114.202 16.8768 113.748 16.6553 113.198 16.6553C112.708 16.6553 112.206 16.8399 111.693 17.1966C111.191 17.5656 110.737 17.9838 110.33 18.4513V26.1271L111.836 27.7385V28.2798H104.822V27.7508H104.798ZM97.737 27.4064C98.657 27.4064 99.3619 26.9513 99.8637 26.0287C100.366 25.1061 100.616 23.6546 100.616 21.6865C100.616 19.706 100.366 18.2299 99.8518 17.2458C99.338 16.2617 98.6331 15.782 97.7131 15.782C96.805 15.782 96.1001 16.2617 95.5863 17.2458C95.0845 18.2176 94.8335 19.706 94.8335 21.6988C94.8335 23.6792 95.0845 25.1185 95.5863 26.041C96.112 26.9513 96.8289 27.4064 97.737 27.4064ZM97.725 28.6119C96.3988 28.6119 95.192 28.3044 94.1166 27.7139C93.0413 27.1112 92.193 26.2747 91.5836 25.2045C90.9743 24.1343 90.6636 22.9289 90.6636 21.6003C90.6636 20.2718 90.9743 19.0786 91.5836 18.0207C92.2049 16.9506 93.0533 16.1141 94.1286 15.4991C95.2039 14.884 96.4107 14.5765 97.725 14.5765C99.0513 14.5765 100.258 14.884 101.333 15.4991C102.409 16.1141 103.257 16.9506 103.878 18.0207C104.5 19.0909 104.798 20.2841 104.798 21.6003C104.798 22.9289 104.488 24.1343 103.878 25.2045C103.257 26.2747 102.409 27.1112 101.333 27.7139C100.258 28.3044 99.0513 28.6119 97.725 28.6119ZM83.184 28.6119C81.3201 28.6119 79.6593 28.206 78.2016 27.3818C76.7439 26.5577 75.6088 25.4137 74.7963 23.9498C73.9839 22.4737 73.5776 20.8131 73.5776 18.9556C73.5776 17.0367 73.9719 15.3268 74.7844 13.8138C75.5849 12.3008 76.72 11.1076 78.2016 10.2588C79.6712 9.39774 81.3798 8.97949 83.3154 8.97949C84.1757 8.97949 84.9284 9.01642 85.5736 9.07792C86.2189 9.13943 86.7924 9.22552 87.2822 9.33623C87.7721 9.43464 88.4174 9.59455 89.182 9.79136L89.7197 15.253H88.9072C88.6324 14.3058 88.2501 13.4694 87.7363 12.7436C87.2345 12.0179 86.6251 11.4397 85.9082 11.0215C85.1913 10.6032 84.4027 10.3941 83.5305 10.3941C81.7144 10.3941 80.3642 11.1199 79.4561 12.5714C78.5481 14.0106 78.106 16.1264 78.106 18.8941C78.106 21.6373 78.572 23.7161 79.492 25.1061C80.412 26.4962 81.7382 27.1973 83.4707 27.1973C84.7373 27.1973 85.8485 26.7791 86.8043 25.918C87.7602 25.0692 88.4651 23.876 88.9072 22.3261H89.7197L89.182 27.7878C88.0709 28.0953 87.115 28.3167 86.3144 28.4274C85.5139 28.5504 84.4744 28.6119 83.184 28.6119Z" fill="#991B1F"/>
<path d="M32.8938 58.5036C19.8583 58.4298 9.27211 47.5557 9.22431 34.0984C9.17652 20.5796 19.7627 9.5702 32.8938 9.5087V58.5036ZM52.477 27.0007C56.2288 27.0007 59.2755 30.1375 59.2755 34C59.2755 37.8625 56.2288 40.9993 52.477 40.9993C48.7253 40.9993 45.6784 37.8625 45.6784 34C45.6904 30.1375 48.7253 27.0007 52.477 27.0007ZM46.6821 9.49638H58.2719V21.4284L46.6821 9.49638ZM46.6821 58.5036H58.2719V46.5717L46.6821 58.5036ZM32.8938 0C14.6488 0.0738061 -0.0714288 15.3517 0.000260744 34.1353C0.0719503 52.8329 14.7802 67.9385 32.8938 68V58.5036H42.1298V9.5087H32.8938V0Z" fill="#991B1F"/>
</svg>
