<svg width="19" height="19" viewBox="0 0 19 19" fill="none" xmlns="http://www.w3.org/2000/svg">
<g clip-path="url(#clip0_22_137)">
<path d="M15.5586 10.1781C15.2555 9.79531 15.3422 9.625 15.5586 9.28281C15.5625 9.2789 18.0648 5.82109 18.3226 4.64844L18.3242 4.64766C18.4523 4.22031 18.3242 3.90625 17.7047 3.90625H15.6547C15.1328 3.90625 14.8922 4.17578 14.7633 4.47734C14.7633 4.47734 13.7195 6.97578 12.243 8.59531C11.7664 9.06328 11.5461 9.21328 11.2859 9.21328C11.1578 9.21328 10.9586 9.06328 10.9586 8.63594V4.64766C10.9586 4.13516 10.8125 3.90625 10.3805 3.90625H7.15703C6.82969 3.90625 6.63515 4.14531 6.63515 4.36797C6.63515 4.85391 7.37344 4.96562 7.45 6.33281V9.29922C7.45 9.94922 7.33203 10.0687 7.07031 10.0687C6.37344 10.0687 4.68203 7.56016 3.67969 4.68906C3.47734 4.13203 3.27969 3.90703 2.75391 3.90703H0.703125C0.117969 3.90703 0 4.17656 0 4.47812C0 5.01094 0.696874 7.66016 3.24062 11.1602C4.93594 13.5492 7.32343 14.8437 9.49531 14.8437C10.8008 14.8437 10.9602 14.5562 10.9602 14.0617C10.9602 11.7789 10.8422 11.5633 11.4961 11.5633C11.7992 11.5633 12.3211 11.7133 13.5398 12.8656C14.9328 14.232 15.1617 14.8437 15.9414 14.8437H17.9914C18.5758 14.8437 18.8719 14.5562 18.7016 13.9891C18.3117 12.7961 15.6773 10.3422 15.5586 10.1781Z" fill="#991B1F"/>
</g>
<defs>
<clipPath id="clip0_22_137">
<rect width="18.75" height="18.75" fill="white"/>
</clipPath>
</defs>
</svg>
